<svg xmlns="http://www.w3.org/2000/svg" xml:space="preserve" enable-background="new 0 0 800 160" viewBox="0 0 800 160"><path fill="#333" d="M213.1 126.7c-6.8 0-13.4-1-19.7-2.8a46.7 46.7 0 0 1-15.7-7.6L184 102c8.7 6 18.4 9 29.3 9 5.6 0 10-.9 13-2.7 3-1.8 4.5-4.4 4.5-7.6 0-2.9-1.4-5.2-4.1-6.8a55.6 55.6 0 0 0-14.8-4.7c-8-1.6-14.3-3.6-19-6-4.8-2.2-8.2-5-10.4-8.4s-3.3-7.6-3.3-12.5c0-5.5 1.5-10.3 4.6-14.6s7.2-7.6 12.7-10a46.2 46.2 0 0 1 19-3.7 61 61 0 0 1 18.5 3 38 38 0 0 1 14.2 7.6l-6.4 14.2a44 44 0 0 0-26.1-9.1c-5.2 0-9.3 1-12.3 3s-4.5 4.8-4.5 8.3c0 2 .6 3.7 1.7 5 1.2 1.3 3.1 2.5 5.8 3.5 2.7 1 6.5 2.1 11.5 3.2a64.4 64.4 0 0 1 25 9.9c5 4 7.6 9.5 7.6 16.6 0 8.6-3.3 15.3-9.9 20.2a45 45 0 0 1-27.5 7.4zm83.7-14.4c2 0 4-.1 6.2-.4l-1 14.1c-2.5.4-5 .5-7.5.5-9.5 0-16.5-2-20.9-6.2-4.4-4.2-6.6-10.6-6.6-19.1v-24h-11.9V62.6h12V44.2h19.2v18.5h15.8V77h-15.8v24c0 7.5 3.5 11.2 10.5 11.2zm45 14.2c-6.7 0-12.5-1.3-17.6-4-5-2.7-8.9-6.5-11.6-11.4-2.8-5-4.1-10.7-4.1-17.3 0-6.7 1.3-12.5 4-17.4 2.8-4.9 6.7-8.7 11.7-11.3 5-2.7 10.9-4 17.6-4 6.6 0 12.5 1.3 17.5 4 5 2.6 9 6.4 11.6 11.3 2.8 5 4.1 10.7 4.1 17.4 0 6.6-1.3 12.4-4 17.3-2.8 5-6.7 8.7-11.7 11.4-5 2.7-10.9 4-17.5 4zm0-14.7c9.3 0 14-6 14-18 0-6.1-1.2-10.6-3.6-13.6-2.4-3-6-4.5-10.4-4.5-9.4 0-14.1 6-14.1 18s4.7 18.1 14 18.1zM428.5 77l-10.8 1c-5.4.6-9.2 2-11.4 4.6a14.6 14.6 0 0 0-3.4 10v32.8h-19.3V62.7h18.6v10.6c3.1-7.3 9.7-11.2 19.6-12l5.6-.3 1.1 16zm56.2-14.2h19l-38 85.7h-19.5l12-26.5-25.8-59.2h20l16 40 16.3-40zm63.7-1.7a26.1 26.1 0 0 1 24.3 15.3c2.4 5 3.5 10.6 3.5 17.1s-1.1 12.2-3.5 17.2a26 26 0 0 1-24.3 15.8c-4.3 0-8.2-.9-11.7-2.7s-6.2-4.4-8-7.6v9.3h-19.2V35.3H529V71c1.8-3.2 4.5-5.6 8-7.4 3.4-1.7 7.3-2.6 11.5-2.6zm-5.6 50.7c4.5 0 8-1.6 10.5-4.8s3.7-7.7 3.7-13.5c0-5.7-1.2-10-3.7-13.1-2.5-3-6-4.6-10.5-4.6s-8 1.6-10.5 4.7a20.8 20.8 0 0 0-3.7 13.3 21 21 0 0 0 3.7 13.3c2.5 3.1 6 4.7 10.5 4.7zm75.4 14.7c-6.6 0-12.5-1.3-17.5-4s-9-6.5-11.7-11.4c-2.7-5-4-10.7-4-17.3 0-6.7 1.3-12.5 4-17.4 2.8-4.9 6.6-8.7 11.7-11.3 5-2.7 10.9-4 17.5-4s12.5 1.3 17.5 4c5 2.6 9 6.4 11.7 11.3 2.7 5 4 10.7 4 17.4 0 6.6-1.3 12.4-4 17.3-2.7 5-6.6 8.7-11.7 11.4-5 2.7-10.8 4-17.5 4zm0-14.7c9.4 0 14-6 14-18 0-6.1-1.1-10.6-3.6-13.6-2.4-3-5.9-4.5-10.4-4.5-9.4 0-14 6-14 18s4.6 18.1 14 18.1zm72 14.7c-6.6 0-12.4-1.3-17.5-4-5-2.7-8.9-6.5-11.6-11.4-2.7-5-4.1-10.7-4.1-17.3 0-6.7 1.4-12.5 4-17.4 2.8-4.9 6.7-8.7 11.7-11.3 5-2.7 11-4 17.6-4 6.6 0 12.5 1.3 17.5 4 5 2.6 9 6.4 11.7 11.3 2.7 5 4 10.7 4 17.4 0 6.6-1.3 12.4-4 17.3-2.8 5-6.7 8.7-11.7 11.4-5 2.7-10.9 4-17.5 4zm0-14.7c9.5 0 14.2-6 14.2-18 0-6.1-1.3-10.6-3.7-13.6-2.4-3-5.9-4.5-10.4-4.5-9.4 0-14.1 6-14.1 18s4.7 18.1 14 18.1zM800 125.5h-23.7l-24-28v28h-19.4V35.3h19.4v54.2l23.1-26.7h23l-26.3 30 27.9 32.7z"/><path fill="#ff4785" d="m5 147.4-5-132A8 8 0 0 1 7.5 7L120 0a8 8 0 0 1 8.5 8v144a8 8 0 0 1-8.4 8l-107.4-4.8a8 8 0 0 1-7.6-7.8z"/><defs><filter id="a" width="78.6" height="129.7" x="33.1" y="0" filterUnits="userSpaceOnUse"><feColorMatrix values="1 0 0 0 0 0 1 0 0 0 0 0 1 0 0 0 0 0 1 0"/></filter></defs><mask id="b" width="78.6" height="129.7" x="33.1" y="0" maskUnits="userSpaceOnUse"><g filter="url(#a)"><path fill="#fff" d="m5 147.4-5-132A8 8 0 0 1 7.5 7L120 0a8 8 0 0 1 8.5 8v144a8 8 0 0 1-8.4 8l-107.4-4.8a8 8 0 0 1-7.6-7.8z"/></g></mask><path fill="#fff" d="m94.8 19.7.8-18.5L111 0l.7 19a1.2 1.2 0 0 1-2 1l-5.9-4.7-7 5.4a1.2 1.2 0 0 1-2-1zM75.1 60.3c0 3.1 21 1.6 24-.6 0-21.3-11.5-32.5-32.5-32.5S34 38.6 34 55.7c0 29.7 40 30.2 40 46.4 0 4.6-2.2 7.3-7 7.3-6.5 0-9-3.3-8.7-14.3 0-2.5-24.3-3.2-25 0-2 26.8 14.8 34.6 34 34.6 18.5 0 33-10 33-27.8 0-31.9-40.6-31-40.6-46.8 0-6.4 4.7-7.3 7.5-7.3 3 0 8.3.6 7.9 12.5z" mask="url(#b)"/></svg>
