<svg xmlns="http://www.w3.org/2000/svg" xml:space="preserve" enable-background="new 0 0 160 160" viewBox="0 0 160 160"><filter id="a" width="78.6" height="129.7" x="33.1" y="0" filterUnits="userSpaceOnUse"><feColorMatrix values="1 0 0 0 0 0 1 0 0 0 0 0 1 0 0 0 0 0 1 0"/></filter><path fill="#ff4785" d="m21 147.4-5-132A8 8 0 0 1 23.5 7l112-7a8 8 0 0 1 8.5 8v144a8 8 0 0 1-8.4 8l-107-4.8a8 8 0 0 1-7.5-7.8H21z"/><mask id="b" width="78.3" height="129.7" x="49" y="0" maskUnits="userSpaceOnUse"><g filter="url(#a)"><path fill="#fff" d="m21 147.4-5-132A8 8 0 0 1 23.5 7l112-7a8 8 0 0 1 8.5 8v144a8 8 0 0 1-8.4 8l-107-4.8a8 8 0 0 1-7.5-7.8H21z"/></g></mask><path fill="#fff" d="m110.4 19.7.8-18.5L126.6 0l.7 19a1.2 1.2 0 0 1-2 1l-5.9-4.7-7 5.4a1.2 1.2 0 0 1-2-1zM90.8 60.3c0 3.1 21 1.6 24-.6 0-21.3-11.5-32.5-32.5-32.5S50 38.6 50 55.7c0 29.7 39.8 30.2 39.8 46.4 0 4.6-2.2 7.3-7 7.3-6.4 0-9-3.3-8.6-14.3 0-2.5-24.2-3.2-25 0-2 26.8 14.8 34.6 34 34.6 18.4 0 32.8-10 32.8-27.8 0-31.9-40.4-31-40.4-46.8 0-6.4 4.7-7.3 7.4-7.3 3 0 8.3.6 8 12.5z" mask="url(#b)"/></svg>
